<?xml version="1.0" encoding="UTF-8"?>
<svg xmlns="http://www.w3.org/2000/svg" version="1.1" xmlns:xlink="http://www.w3.org/1999/xlink" viewBox="0 0 3252.52 1943.27">
  <!-- Generator: Adobe Illustrator 29.5.1, SVG Export Plug-In . SVG Version: 2.1.0 Build 141)  -->
  <defs>
    <style>
      .st0 {
        stroke: #31cd86;
        stroke-width: 11.1px;
      }

      .st0, .st1, .st2, .st3, .st4, .st5, .st6, .st7, .st8, .st9, .st10, .st11 {
        stroke-miterlimit: 10;
      }

      .st0, .st2, .st3, .st4, .st5, .st6, .st7, .st8, .st9, .st10, .st11 {
        fill: none;
      }

      .st1 {
        fill: url(#linear-gradient);
        stroke: #036;
        stroke-width: 1.21px;
      }

      .st12, .st13, .st14, .st15, .st16, .st17, .st18, .st19, .st20 {
        font-weight: 700;
      }

      .st12, .st14, .st15, .st17, .st19 {
        font-family: SourceSansPro-Bold, 'Source Sans Pro';
      }

      .st12, .st15, .st19 {
        font-size: 155.91px;
      }

      .st12, .st21 {
        fill: #26828e;
      }

      .st13 {
        fill: #440154;
      }

      .st13, .st16 {
        font-size: 141.73px;
      }

      .st13, .st16, .st18, .st20 {
        font-family: Roboto-Bold, Roboto;
      }

      .st2 {
        stroke-width: 11.28px;
      }

      .st2, .st6 {
        stroke: #26828e;
      }

      .st14 {
        fill: #482777;
      }

      .st14, .st17 {
        font-size: 127.56px;
      }

      .st15, .st19 {
        fill: #35b779;
      }

      .st16, .st22, .st17, .st18 {
        fill: #3e4989;
      }

      .st3 {
        stroke-width: 7.4px;
      }

      .st3, .st5, .st7, .st10, .st11 {
        stroke: #f15a24;
      }

      .st4 {
        stroke: #e5e319;
        stroke-width: 12.36px;
      }

      .st5 {
        stroke-width: 7.57px;
      }

      .st18, .st20 {
        font-size: 113.39px;
      }

      .st19 {
        letter-spacing: 0em;
      }

      .st23 {
        fill: #31cd86;
      }

      .st24 {
        fill: #f15a24;
      }

      .st6 {
        stroke-width: 10.43px;
      }

      .st7 {
        stroke-width: 8.21px;
      }

      .st8 {
        stroke: #fde725;
        stroke-width: 11.34px;
      }

      .st20 {
        fill: #fde725;
      }

      .st9 {
        stroke: #31688e;
        stroke-width: 14.35px;
      }

      .st10 {
        stroke-width: 6.68px;
      }

      .st11 {
        stroke-width: 6.91px;
      }
    </style>
    <linearGradient id="linear-gradient" x1="815.47" y1="-826.25" x2="2278.26" y2="-826.25" gradientTransform="translate(112.76 2015.45)" gradientUnits="userSpaceOnUse">
      <stop offset=".07" stop-color="#ebfcff"/>
      <stop offset=".17" stop-color="#d6f4fa"/>
      <stop offset=".37" stop-color="#a2e2ef"/>
      <stop offset=".67" stop-color="#50c5dd"/>
      <stop offset=".93" stop-color="#00a9cc"/>
    </linearGradient>
  </defs>
  <g id="Layer_3">
    <rect class="st1" x="873.41" y="-432.01" width="1508.14" height="3242.43" transform="translate(2816.68 -438.28) rotate(90)"/>
  </g>
  <g id="Layer_1">
    <text/>
    <text class="st12" transform="translate(454.06 245.67)"><tspan x="0" y="0">CO₂</tspan></text>
    <text class="st15" transform="translate(763.91 237.86)"><tspan x="0" y="0">pCO</tspan></text>
    <text class="st19" transform="translate(1050.62 289.77) scale(.58)"><tspan x="0" y="0">2</tspan></text>
    <text class="st15" transform="translate(1098.61 237.86)"><tspan x="0" y="0">(at)</tspan></text>
    <text class="st16" transform="translate(2400.69 202.22)"><tspan x="0" y="0">Atmosphere</tspan></text>
    <text class="st13" transform="translate(2742.49 569.98)"><tspan x="0" y="0">Ocean</tspan></text>
    <text class="st17" transform="translate(1772.48 843.87)"><tspan x="0" y="0">Total Alkalinity + Ions</tspan></text>
    <text class="st14" transform="translate(1541.11 569.98) scale(.93 1)"><tspan x="0" y="0">DIC</tspan></text>
    <text/>
    <text class="st18" transform="translate(297.52 1191.13)"><tspan x="0" y="0">H</tspan></text>
    <text class="st18" transform="translate(377.57 1228.89) scale(.58)"><tspan x="0" y="0">2</tspan></text>
    <text class="st18" transform="translate(415.5 1191.13)"><tspan x="0" y="0">O + CO</tspan></text>
    <text class="st18" transform="translate(764.18 1228.89) scale(.58)"><tspan x="0" y="0">2</tspan></text>
    <text class="st18" transform="translate(802.11 1191.13)"><tspan x="0" y="0">(aq)</tspan></text>
    <text class="st18" transform="translate(1317.81 1207.84)"><tspan x="0" y="0">H</tspan></text>
    <text class="st18" transform="translate(1397.87 1245.6) scale(.58)"><tspan x="0" y="0">2</tspan></text>
    <text class="st18" transform="translate(1435.8 1207.84)"><tspan x="0" y="0">CO</tspan></text>
    <text class="st18" transform="translate(1588.16 1245.6) scale(.58)"><tspan x="0" y="0">3</tspan></text>
    <text class="st18" transform="translate(1990.34 1220.26)"><tspan x="0" y="0">HCO</tspan></text>
    <text class="st18" transform="translate(2222.76 1258.02) scale(.58)"><tspan x="0" y="0">3</tspan><tspan x="65.05" y="-129.53">-</tspan></text>
    <text class="st18" transform="translate(2711.54 1228.89)"><tspan x="0" y="0">CO</tspan></text>
    <text class="st18" transform="translate(2863.9 1266.65) scale(.58)"><tspan x="0" y="0">2</tspan></text>
    <text class="st18" transform="translate(2901.82 1228.89)"><tspan x="0" y="0">²</tspan></text>
    <text class="st18" transform="translate(2944.07 1191.13) scale(.58)"><tspan x="0" y="0">-</tspan></text>
    <text class="st20" transform="translate(2095.91 1466.69)"><tspan x="0" y="0">H</tspan></text>
    <text class="st20" transform="translate(2175.97 1428.93) scale(.58)"><tspan x="0" y="0">+</tspan></text>
    <text class="st20" transform="translate(2716.3 1466.69)"><tspan x="0" y="0">H</tspan></text>
    <text class="st20" transform="translate(2796.35 1428.93) scale(.58)"><tspan x="0" y="0">+</tspan></text>
    <text class="st18" transform="translate(2439.67 1809.81)"><tspan x="0" y="0">pH</tspan></text>
    <text class="st18" transform="translate(543.53 1679.97)"><tspan x="0" y="0">pCO2(aq)</tspan></text>
  </g>
  <g id="Layer_5">
    <g>
      <line class="st22" x1="1028.61" y1="1168.16" x2="1296" y2="1168.16"/>
      <g>
        <line class="st11" x1="1078.23" y1="1168.16" x2="1246.38" y2="1168.16"/>
        <polygon class="st24" points="1088.32 1202.63 1028.61 1168.16 1088.32 1133.68 1088.32 1202.63"/>
        <polygon class="st24" points="1236.29 1202.63 1296 1168.16 1236.29 1133.68 1236.29 1202.63"/>
      </g>
    </g>
    <g>
      <line class="st22" x1="1638.78" y1="1168.16" x2="1959.65" y2="1168.16"/>
      <g>
        <line class="st5" x1="1693.14" y1="1168.16" x2="1905.29" y2="1168.16"/>
        <polygon class="st24" points="1704.19 1205.93 1638.78 1168.16 1704.19 1130.38 1704.19 1205.93"/>
        <polygon class="st24" points="1894.24 1205.93 1959.65 1168.16 1894.24 1130.38 1894.24 1205.93"/>
      </g>
    </g>
    <g>
      <line class="st22" x1="2322.89" y1="1189.2" x2="2628.76" y2="1189.2"/>
      <g>
        <line class="st3" x1="2375.97" y1="1189.2" x2="2575.69" y2="1189.2"/>
        <polygon class="st24" points="2386.76 1226.08 2322.89 1189.2 2386.76 1152.33 2386.76 1226.08"/>
        <polygon class="st24" points="2564.9 1226.08 2628.76 1189.2 2564.9 1152.33 2564.9 1226.08"/>
      </g>
    </g>
    <g>
      <line class="st22" x1="1743.46" y1="1169.01" x2="2103.11" y2="1355.48"/>
      <g>
        <line class="st7" x1="1743.46" y1="1169.01" x2="2050.84" y2="1328.38"/>
        <polygon class="st24" points="2021.38 1359.19 2103.11 1355.48 2059.04 1286.54 2021.38 1359.19"/>
      </g>
    </g>
    <g>
      <line class="st22" x1="2448.94" y1="1189.2" x2="2716.3" y2="1355.48"/>
      <g>
        <line class="st10" x1="2448.94" y1="1189.2" x2="2675.59" y2="1330.16"/>
        <polygon class="st24" points="2649.72 1353.3 2716.3 1355.48 2684.9 1296.73 2649.72 1353.3"/>
      </g>
    </g>
  </g>
  <g id="Layer_2">
    <g>
      <line x1="864" y1="305" x2="864" y2="1035.75"/>
      <g>
        <line class="st0" x1="864" y1="384.63" x2="864" y2="957.4"/>
        <polygon class="st23" points="808.67 400.82 864 305 919.33 400.82 808.67 400.82"/>
        <polygon class="st23" points="864 1035.75 818.89 925.34 864 951.54 909.1 925.34 864 1035.75"/>
      </g>
    </g>
    <g>
      <line x1="668.75" y1="305" x2="668.75" y2="1060.2"/>
      <g>
        <line class="st2" x1="668.75" y1="385.95" x2="668.75" y2="980.55"/>
        <polygon class="st21" points="612.5 402.41 668.75 305 725 402.41 612.5 402.41"/>
        <polygon class="st21" points="668.75 1060.2 622.89 947.96 668.75 974.59 714.6 947.96 668.75 1060.2"/>
      </g>
    </g>
    <polyline class="st9" points="609.12 764 675.91 703.63 1537.25 703.63 1620.04 628.79 1708.46 708.72 2925.59 708.72 3019.79 793.87"/>
    <polyline class="st6" points="1953.39 1015.1 1978.41 954.73 2301.03 954.73 2332.04 879.89 2365.16 959.82 2821.06 959.82 2856.34 1044.97"/>
  </g>
  <g id="Layer_4">
    <polyline class="st8" points="962.62 1349.66 952.83 1415.2 826.52 1415.2 814.38 1496.44 801.41 1409.67 622.93 1409.67 609.12 1317.23"/>
    <polyline class="st4" points="2748.44 1577.71 2732.22 1628.82 2522.99 1628.82 2502.88 1692.18 2481.4 1624.51 2185.75 1624.51 2162.87 1552.42"/>
  </g>
</svg>